<svg version="1.1" xmlns="http://www.w3.org/2000/svg" viewBox="0 0 255.58481231474696 217.438836438517" width="255.58481231474696" height="217.438836438517">
  <!-- svg-source:excalidraw -->
  
  <defs>
    <style>
      @font-face {
        font-family: "Virgil";
        src: url("https://excalidraw.com/Virgil.woff2");
      }
      @font-face {
        font-family: "Cascadia";
        src: url("https://excalidraw.com/Cascadia.woff2");
      }
    </style>
  </defs>
  <rect x="0" y="0" width="255.58481231474696" height="217.438836438517" fill="#ffffff"></rect><g stroke-linecap="round" transform="translate(11.815859722394407 10) rotate(0 116.5 21.5)"><path d="M1.3 -0.36 C73.78 -1.69, 142.98 -2.87, 233.54 -1.36 M0.84 0.59 C87.05 -1.72, 174.83 -1.88, 233.7 -0.77 M234.6 0.95 C233.19 12.84, 234.67 29.39, 232.02 42.03 M232.71 0.42 C233.66 10.65, 233.45 20.52, 233.53 43.69 M234.28 42.63 C149.98 45.86, 63.76 44.57, 1.11 43.77 M232.52 42.44 C153.3 44.33, 72.82 44.97, 0.44 43.36 M-1.07 43.92 C-0.52 30.82, -0.73 14.54, -1.32 1.21 M0.32 42.04 C0.16 31.79, -0.64 19.23, -0.17 0.22" stroke="#000000" stroke-width="1" fill="none"></path></g><g stroke-linecap="round" transform="translate(-43.42245365764745 112.91739152985281) rotate(270.0600503250576 74 20.5)"><path d="M0.6 0.63 C40.82 -0.81, 83.11 0.5, 149.47 1.06 M-0.36 0.55 C58.48 -1.44, 116.88 -0.64, 148.35 0.22 M147.59 -1 C149.17 11.73, 149.19 21.62, 148.98 42.65 M148.25 -0.16 C148.47 15.14, 147.8 29.57, 148.8 41.73 M149.69 39.41 C95.46 39.14, 44.23 41.38, -1.02 42.39 M148.12 41.86 C105.22 42.06, 63.46 41.34, 0.38 40.22 M-0.48 39.78 C-0.66 26.31, -1.3 12.44, -0.18 -1.23 M-0.48 40.86 C-0.76 30.4, 0.64 17.97, -0.85 -0.78" stroke="#000000" stroke-width="1" fill="none"></path></g><g transform="translate(-38.42245365764745 120.91739152985281) rotate(270.0600503250576 69 12.5)"><text x="69" y="18" font-family="Virgil, Segoe UI Emoji" font-size="20px" fill="#000000" text-anchor="middle" style="white-space: pre;" direction="ltr">Culture</text></g><g stroke-linecap="round" transform="translate(19.409609722394407 111.9732666015625) rotate(270.0600503250576 74 20.5)"><path d="M0.31 0.9 C43.54 1.37, 87.47 1.98, 146.5 0.69 M0.55 0.91 C47.1 1.74, 92.02 1.82, 147.22 -0.09 M146.7 0.31 C147.76 9.14, 147.45 22.48, 148.25 41.5 M148.25 0.26 C147.69 11.99, 147.73 22.76, 148.29 41.18 M149.56 41.91 C118.87 40.07, 87.1 41.12, -1.23 41.71 M147.83 40.53 C109.7 40.47, 70.09 40.97, 0.81 40.82 M-0.06 41.74 C0.58 23.75, -0.11 7.94, 0 -0.37 M0.9 41.41 C0.13 25.97, 0.94 12.04, -0.45 -0.49" stroke="#000000" stroke-width="1" fill="none"></path></g><g transform="translate(24.409609722394407 119.9732666015625) rotate(270.0600503250576 69 12.5)"><text x="69" y="18" font-family="Virgil, Segoe UI Emoji" font-size="20px" fill="#000000" text-anchor="middle" style="white-space: pre;" direction="ltr">Automation</text></g><g stroke-linecap="round" transform="translate(85.0033597223944 112.3170166015625) rotate(270.0600503250576 74 20.5)"><path d="M1.62 -1.5 C40.42 0.93, 81.2 -0.51, 149.1 1.81 M0.97 -0.78 C53.5 0.89, 107.68 1.39, 147.35 0.16 M149.99 0.25 C148.28 10.84, 149.07 24.69, 148.5 41.51 M148.36 0.29 C148.51 9.01, 149.1 19.77, 148.78 41.46 M148.25 39.77 C92.17 40.7, 36.53 41.37, -0.34 40.07 M148.05 41.81 C98.36 41.07, 48.28 39.5, -0.03 41.37 M-0.29 41 C-0.19 29.42, -0.89 13.58, 1.79 0.82 M0.69 40.55 C-0.41 28.42, -0.38 16.56, -0.25 0.08" stroke="#000000" stroke-width="1" fill="none"></path></g><g transform="translate(90.0033597223944 120.3170166015625) rotate(270.0600503250576 69 12.5)"><text x="69" y="18" font-family="Virgil, Segoe UI Emoji" font-size="20px" fill="#000000" text-anchor="middle" style="white-space: pre;" direction="ltr">Metrics</text></g><g stroke-linecap="round" transform="translate(151.0072659723944 111.8248291015625) rotate(270.0600503250576 74 20.5)"><path d="M-1.16 1.1 C51.33 -0.05, 100.8 -3.17, 149.93 -1.56 M-0.01 -0.65 C43.29 -0.97, 85.71 -1.12, 149 0.12 M149.93 0.5 C148.4 12.18, 149.48 25.59, 148.72 41.59 M147.91 0.78 C148.08 13.87, 147.22 26.42, 148.13 40.39 M147.89 40.66 C97.44 42.86, 47.85 40.93, 0.1 42.62 M147.42 40.97 C106.6 39.96, 64.03 39.61, -0.15 41 M-1.79 42.79 C0.57 29.28, -0.66 19.35, 1.38 -0.89 M-0.57 40.75 C0.34 31.36, 0.52 19.53, 0.29 0.26" stroke="#000000" stroke-width="1" fill="none"></path></g><g transform="translate(156.0072659723944 119.8248291015625) rotate(270.0600503250576 69 12.5)"><text x="69" y="18" font-family="Virgil, Segoe UI Emoji" font-size="20px" fill="#000000" text-anchor="middle" style="white-space: pre;" direction="ltr">Sharing</text></g><g transform="translate(16.815859722394407 19) rotate(0 111.5 12.5)"><text x="111.5" y="18" font-family="Virgil, Segoe UI Emoji" font-size="20px" fill="#000000" text-anchor="middle" style="white-space: pre;" direction="ltr">DevOps</text></g></svg>